<svg width="1024" height="1024" viewBox="0 0 1024 1024" fill="none" xmlns="http://www.w3.org/2000/svg">
<path d="M513 157C706.26 157 863 315.898 863 512C863 708.102 706.26 867 513 867C319.74 867 163 708.102 163 512C163 315.898 319.74 157 513 157Z" stroke="black" stroke-width="3"/>
<path d="M437 658.232V691H510V638C509.404 621.152 500 600 500 600C500 600 484.646 568.76 461 554C446.976 545.246 428.26 542.07 415.9 540.866C409.92 540.282 398.88 534.09 395.39 529.2C375.704 501.608 363.228 487.554 345 480C339.198 477.722 336.508 477.598 333 480C333 480 330.334 483.334 330 486C342 502.666 366.4 536.8 368 540C370 544 369 545 368 545C367.442 545 362.944 542.07 358.806 539.282C355.646 537.152 353.168 534.174 351.45 530.772C345.31 518.612 335.506 501.574 329.428 491.19C326.16 485.608 326.13 478.628 330.684 474.036C331.924 472.786 333 470.95 333 469.188V469C331.802 444.312 331.01 430.436 327 405C326.614 403.648 325.966 402.408 325.174 401.288C321.182 395.646 312.564 397.632 310.27 404.154C310.106 404.62 309.994 405.25 309.982 405.746L308.128 483.616C308.044 487.168 308.68 490.7 310 494C319.666 514.666 338 560 338 560C338 560 338.248 560.658 338.664 561.734C342.938 572.756 350.756 581.724 360.25 588.764C381.736 604.694 409.808 624.524 422.394 633.368C426.774 636.448 430.896 640.356 433.87 644.808C436.532 648.792 437 653.442 437 658.232Z" fill="#41DFD1"/>
<path d="M607 658.232V691H534V638C534.596 621.152 544 600 544 600C544 600 559.354 568.76 583 554C597.024 545.246 615.74 542.07 628.1 540.866C634.08 540.282 645.12 534.09 648.61 529.2C668.296 501.608 680.772 487.554 699 480C704.802 477.722 707.492 477.598 711 480C711 480 713.666 483.334 714 486C702 502.666 677.6 536.8 676 540C674 544 675 545 676 545C676.558 545 681.056 542.07 685.194 539.282C688.354 537.152 690.832 534.174 692.55 530.772C698.69 518.612 708.494 501.574 714.572 491.19C717.84 485.608 717.87 478.628 713.316 474.036C712.076 472.786 711 470.95 711 469.188V469C712.198 444.312 712.99 430.436 717 405C717.386 403.648 718.034 402.408 718.826 401.288C722.818 395.646 731.436 397.632 733.73 404.154C733.894 404.62 734.006 405.25 734.018 405.746L735.872 483.616C735.956 487.168 735.32 490.7 734 494C724.334 514.666 706 560 706 560C706 560 705.752 560.658 705.336 561.734C701.062 572.756 693.244 581.724 683.75 588.764C662.264 604.694 634.192 624.524 621.606 633.368C617.226 636.448 613.104 640.356 610.13 644.808C607.468 648.792 607 653.442 607 658.232Z" fill="#41DFD1"/>
<path d="M450 534L481.27 553.978C484.406 555.982 487.212 558.46 489.706 561.224C496.038 568.246 500.24 571.736 507.932 577.65C509.95 579.202 512.274 580.354 514.784 580.786C519.298 581.562 522.724 581.414 528 580C542.874 571.792 547.248 568.584 556 556C566.004 545.09 574.828 538.564 591 533V488C598.072 501.13 600.018 509.94 603 526H623C616.166 474.984 606.222 452.708 572.596 433.454C571.068 432.58 569.148 432.852 567.858 434.052C565.554 436.194 563.352 437.966 560 440C557.458 437.986 555.852 436.488 554.084 434.484C552.834 433.066 550.792 432.61 549.122 433.496C539.636 438.524 533.992 442.588 525 450C512.65 438.156 505.574 432.592 495.014 425.888C493.302 424.802 491.064 425.208 489.734 426.736C487.322 429.506 485.354 431.242 482 434C479.544 431.394 477.918 429.57 476.126 427.102C474.884 425.392 472.556 424.816 470.742 425.9C430.984 449.678 424.268 476.292 418 527L440 529C441.18 509.898 443.06 500.732 450 489V534Z" fill="#9DD707"/>
<path d="M514 528C500.028 534.236 491.69 540.382 484 556C491.77 566.14 499.238 571.522 508.814 578.422L509.11 578.636C510.366 579.542 511.71 580.34 513.198 580.768C520.15 582.768 526.736 580.828 527 581C527.292 581.192 550.368 568.332 556 556C551.266 543.43 546.73 534.932 530 528V520H514V528Z" fill="#CA34CB"/>
<path d="M521 528C534.255 528 545 517.255 545 504C545 490.745 534.255 480 521 480C507.745 480 497 490.745 497 504C497 517.255 507.745 528 521 528Z" fill="#CA34CB"/>
<path d="M481 418C498.673 418 513 402.33 513 383C513 363.67 498.673 348 481 348C463.327 348 449 363.67 449 383C449 402.33 463.327 418 481 418Z" fill="#9DD707"/>
<path d="M561 428C578.673 428 593 412.33 593 393C593 373.67 578.673 358 561 358C543.327 358 529 373.67 529 393C529 412.33 543.327 428 561 428Z" fill="#9DD707"/>
<path d="M440.716 746.096V748H427.592V746.096L431.332 745.62C431.83 745.53 432.194 745.438 432.42 745.348C432.646 745.212 432.85 744.918 433.032 744.464C433.214 744.01 433.462 743.286 433.78 742.288L446.768 701.76H452.616L465.672 742.288C465.99 743.286 466.238 744.01 466.42 744.464C466.602 744.918 466.806 745.212 467.032 745.348C467.304 745.438 467.666 745.53 468.12 745.62L471.86 746.096V748H453.092V746.096L456.832 745.62C457.558 745.53 457.942 745.348 457.988 745.076C458.078 744.758 457.874 743.83 457.376 742.288L454.792 733.856H439.084L436.432 742.288C435.978 743.83 435.774 744.758 435.82 745.076C435.866 745.348 436.25 745.53 436.976 745.62L440.716 746.096ZM439.9 731.476H454.044L447.04 708.9L439.9 731.476Z" fill="#41DFD1"/>
<path d="M491.966 703.664V701.76H510.598V703.664L506.858 704.14C506.132 704.23 505.702 704.434 505.566 704.752C505.43 705.024 505.362 705.93 505.362 707.472V734.808C505.362 737.392 504.932 739.75 504.07 741.88C503.208 743.966 501.804 745.62 499.854 746.844C497.904 748.068 495.298 748.68 492.034 748.68C490.356 748.68 488.702 748.408 487.07 747.864C485.484 747.274 484.1 746.232 482.922 744.736C481.788 743.24 481.04 741.11 480.678 738.344L485.37 736.984C485.506 739.478 485.868 741.404 486.458 742.764C487.048 744.078 487.796 745.008 488.702 745.552C489.608 746.05 490.584 746.3 491.626 746.3C492.668 746.3 493.598 746.028 494.414 745.484C495.276 744.94 495.956 743.942 496.454 742.492C496.952 741.042 497.202 738.934 497.202 736.168V707.472C497.202 705.93 497.134 705.024 496.998 704.752C496.862 704.434 496.432 704.23 495.706 704.14L491.966 703.664Z" fill="#CA34CB"/>
<path d="M549.942 716.584H551.846V733.516H549.942L548.446 728.008C548.31 727.464 548.15 727.078 547.97 726.852C547.834 726.58 547.538 726.422 547.086 726.376C546.632 726.286 545.862 726.24 544.774 726.24H537.77V742.288C537.77 743.83 537.838 744.758 537.974 745.076C538.11 745.348 538.54 745.53 539.266 745.62L544.366 746.096V748H524.374V746.096L528.114 745.62C528.838 745.53 529.27 745.348 529.406 745.076C529.542 744.758 529.61 743.83 529.61 742.288V707.472C529.61 705.93 529.542 705.024 529.406 704.752C529.27 704.434 528.838 704.23 528.114 704.14L524.374 703.664V701.76H556.606V713.456H554.702L552.526 705.908C552.39 705.364 552.23 704.978 552.05 704.752C551.914 704.48 551.618 704.322 551.166 704.276C550.712 704.186 549.942 704.14 548.854 704.14H537.77V723.86H544.774C545.862 723.86 546.632 723.838 547.086 723.792C547.538 723.702 547.834 723.542 547.97 723.316C548.15 723.044 548.31 722.636 548.446 722.092L549.942 716.584Z" fill="#3D8AA8"/>
<path d="M568.758 701.76H606.158V713.456H604.254L602.078 705.908C601.942 705.318 601.784 704.91 601.602 704.684C601.466 704.412 601.172 704.254 600.718 704.208C600.264 704.162 599.494 704.14 598.406 704.14H591.538V742.288C591.538 743.83 591.606 744.758 591.742 745.076C591.878 745.348 592.308 745.53 593.034 745.62L596.774 746.096V748H578.142V746.096L581.882 745.62C582.608 745.53 583.038 745.348 583.174 745.076C583.31 744.758 583.378 743.83 583.378 742.288V704.14H576.51C575.468 704.14 574.696 704.162 574.198 704.208C573.744 704.254 573.45 704.412 573.314 704.684C573.178 704.91 573.02 705.318 572.838 705.908L570.662 713.456H568.758V701.76Z" fill="#E51417"/>
<path d="M228.628 489.804L227.564 502.708L222.65 502.198L222.934 498.778L218.188 500.012L217.15 512.604L221.604 514.896L221.916 511.112L226.83 511.622L225.778 524.37L220.864 523.862L221.122 520.752L198.166 508.128L197.76 513.052L192.847 512.542L193.74 501.71L223.446 492.56L223.716 489.294L228.628 489.804ZM213.87 501.132L201.818 504.326L201.792 504.636L213.098 510.512L213.87 501.132Z" fill="#0C14B4"/>
<path d="M208.1 442.918L207.35 446.746L235.384 453.608L234.794 456.886L208.422 469.682L208.382 469.886L226.312 474.274L227.262 469.426L232.06 470.602L229.354 484.432L224.556 483.256L225.274 479.582L202.04 473.894L201.222 478.08L196.424 476.906L198.051 468.586L223.194 456.398L223.234 456.194L206.312 452.052L205.364 456.9L200.566 455.726L203.3 441.744L208.1 442.918Z" fill="#0C14B4"/>
<path d="M247.39 412.808L243.502 425.158L238.906 423.346L239.936 420.074L235.116 420.014L231.32 432.066L235.08 435.498L236.22 431.878L240.816 433.688L236.974 445.89L232.378 444.08L233.316 441.104L214.122 422.614L212.638 427.326L208.042 425.514L211.306 415.148L241.81 414.122L242.794 410.996L247.39 412.808ZM230.728 419.958L218.466 419.866L218.374 420.162L227.902 428.934L230.728 419.958Z" fill="#0C14B4"/>
<path d="M238.078 361.598L236.494 365.16L261.708 379.202L260.4 382.268L232.302 387.962L232.216 388.152L248.344 397.132L250.352 392.618L254.668 395.022L248.94 407.898L244.624 405.494L246.146 402.074L225.248 390.436L223.514 394.332L219.198 391.928L222.644 384.184L249.43 378.766L249.514 378.576L234.294 370.102L232.286 374.616L227.97 372.212L233.762 359.194L238.078 361.598Z" fill="#0C14B4"/>
<path d="M268.522 332.648C272.58 335.672 275.104 339.42 276.092 343.896C277.054 348.352 276.168 352.874 273.438 357.462L265.41 370.958L261.448 368.008L263.442 364.656L244.256 350.37L242.262 353.722L238.3 350.772L246.17 337.544C249.076 332.658 252.534 329.88 256.544 329.212C260.552 328.542 264.546 329.688 268.522 332.648ZM265.4 337.998C259.032 333.256 253.916 334.134 250.052 340.628L247.208 345.41L266.392 359.696L269.238 354.914C273.102 348.418 271.822 342.78 265.4 337.998Z" fill="#0C14B4"/>
<path d="M289.448 286.19L287.306 288.738L300.816 302.944C303.062 305.306 304.176 307.752 304.162 310.288C304.17 312.796 303.226 315.176 301.33 317.432C299.636 319.45 297.914 320.614 296.168 320.928C294.418 321.188 292.748 321.006 291.158 320.382L291.652 315.054C293.104 315.63 294.252 315.788 295.1 315.53C295.946 315.22 296.68 314.692 297.306 313.95C298.308 312.756 298.758 311.604 298.656 310.496C298.528 309.362 298.022 308.33 297.138 307.4L283.594 293.156L279.58 297.934L276.176 294.354L286.044 282.61L289.448 286.19Z" fill="#0C14B4"/>
<path d="M324.894 290.6L315.324 300.15L312.244 296.286L315.004 293.532L300.094 274.828L297.334 277.584L294.254 273.72L303.824 264.17L306.904 268.034L304.18 270.752L319.09 289.456L321.814 286.738L324.894 290.6Z" fill="#0C14B4"/>
<path d="M341.89 237.98L339.47 239.95L345.858 271.758L342.632 274.384L317.536 257.814L315.036 259.85L312.342 255.71L322.664 247.302L325.358 251.442L322.456 253.808L339.584 265.53L339.786 265.366L334.914 243.66L331.97 246.058L329.276 241.916L339.194 233.838L341.89 237.98Z" fill="#0C14B4"/>
<path d="M388.424 242.456L377.45 249.33L375.24 244.914L378.148 243.092L374.622 239.864L363.914 246.572L364.444 251.676L367.66 249.662L369.872 254.08L359.03 260.87L356.82 256.452L359.464 254.796L357.394 227.996L353.208 230.618L350.996 226.2L360.206 220.43L383.436 239.778L386.212 238.04L388.424 242.456ZM371.416 236.926L362.41 228.762L362.144 228.928L363.438 241.922L371.416 236.926Z" fill="#0C14B4"/>
<path d="M413.21 199.232L409.662 200.85L419.546 227.964L416.536 229.396L391.472 215.132L391.284 215.218L397.606 232.562L402.1 230.512L403.792 235.152L390.972 241.002L389.28 236.362L392.686 234.808L384.494 212.334L380.614 214.104L378.922 209.462L386.634 205.944L410.518 219.548L410.708 219.462L404.742 203.096L400.246 205.146L398.554 200.504L411.518 194.59L413.21 199.232Z" fill="#0C14B4"/>
<path d="M462.656 191.081L457.944 192.704L455.856 187.385L445.698 189.848L447.766 200.518L462.016 197.062L462.946 201.86L448.694 205.316L450.248 213.332L455.756 211.996L456.696 216.846L441.788 220.46L440.848 215.61L444.638 214.692L440.088 191.208L436.298 192.127L435.358 187.277L459.718 181.371L462.656 191.081Z" fill="#0C14B4"/>
<path d="M504.122 192.817C504.546 197.582 503.376 201.844 500.612 205.604C497.85 209.362 493.816 211.538 488.51 212.128C483.17 212.72 478.866 211.472 475.598 208.384C472.332 205.294 470.49 201.402 470.074 196.705C469.638 191.802 470.822 187.503 473.626 183.809C476.428 180.115 480.414 177.981 485.584 177.406C490.82 176.824 495.106 178.074 498.442 181.156C501.808 184.199 503.702 188.086 504.122 192.817ZM497.934 193.661C497.6 189.897 496.368 187 494.24 184.97C492.146 182.936 489.394 182.109 485.982 182.488C482.398 182.886 479.798 184.361 478.18 186.912C476.594 189.425 475.954 192.408 476.262 195.861C476.558 199.21 477.694 202.014 479.67 204.27C481.68 206.522 484.562 207.44 488.318 207.022C491.866 206.628 494.436 205.192 496.024 202.714C497.61 200.2 498.248 197.183 497.934 193.661Z" fill="#0C14B4"/>
<path d="M542.446 182.177L539.326 182.086L538.97 197.005C538.912 199.397 538.406 201.688 537.452 203.88C536.534 206.038 535.018 207.798 532.906 209.158C530.826 210.52 528.02 211.148 524.486 211.046C519.392 210.896 515.874 209.39 513.93 206.524C511.988 203.658 511.06 200.406 511.148 196.767L511.518 181.275L508.296 181.181L508.414 176.243L521.616 176.628L521.498 181.566L517.288 181.443L516.92 196.779C516.858 199.448 517.446 201.632 518.688 203.334C519.932 205 522.008 205.876 524.92 205.96C527.76 206.042 529.894 205.29 531.32 203.702C532.746 202.078 533.494 199.794 533.564 196.848L533.922 181.928L529.606 181.802L529.726 176.864L542.564 177.238L542.446 182.177Z" fill="#0C14B4"/>
<path d="M584.374 189.463L580.532 188.796L576.566 217.382L573.28 216.864L558.06 190.431L557.854 190.395L555.316 208.68L560.184 209.526L559.504 214.418L545.62 212.008L546.3 207.114L549.988 207.754L553.276 184.062L549.076 183.332L549.754 178.439L558.106 179.889L572.604 205.09L572.81 205.124L575.204 187.87L570.338 187.025L571.016 182.132L585.054 184.57L584.374 189.463Z" fill="#0C14B4"/>
<path d="M617.686 212.936C616.428 217.84 613.972 221.358 610.316 223.492C606.67 225.592 602.304 225.826 597.222 224.194L582.268 219.394L583.496 214.61L587.21 215.802L593.152 192.631L589.438 191.439L590.666 186.654L605.322 191.359C610.734 193.097 614.456 195.927 616.488 199.85C618.518 203.772 618.918 208.134 617.686 212.936ZM611.78 211.096C613.754 203.406 611.142 198.406 603.946 196.096L598.648 194.396L592.706 217.566L598.002 219.266C605.198 221.576 609.792 218.852 611.78 211.096Z" fill="#0C14B4"/>
<path d="M646.486 245.7L634.784 240.158L636.532 235.538L639.634 237.006L639.722 231.944L628.302 226.536L625.018 230.084L628.45 231.71L626.702 236.33L615.14 230.854L616.888 226.234L619.708 227.57L637.386 209.56L632.92 207.446L634.668 202.826L644.49 207.478L645.274 239.678L648.234 241.08L646.486 245.7ZM639.802 227.336L639.966 214.454L639.684 214.32L631.296 223.308L639.802 227.336Z" fill="#0C14B4"/>
<path d="M683.876 243.548L679.47 241.25L681.524 234.892L675.944 231.36L665.15 252.706L669.938 255.738L667.71 260.146L653.43 251.108L655.658 246.7L660.272 249.62L671.068 228.274L665.444 224.714L661.632 229.958L657.644 226.944L663.498 217.664L687.972 233.154L683.876 243.548Z" fill="#0C14B4"/>
<path d="M686.316 274.9L675.66 266.578L678.276 262.386L681.35 264.788L694.014 244.494L690.94 242.094L693.556 237.904L704.21 246.226L701.594 250.416L698.562 248.048L685.898 268.34L688.932 270.708L686.316 274.9Z" fill="#0C14B4"/>
<path d="M728.724 291.808C725.806 295.6 722.19 297.786 717.876 298.366C713.56 298.946 709.48 297.384 705.634 293.682C701.764 289.954 699.8 285.696 699.746 280.908C699.692 276.12 701.102 271.858 703.976 268.122C706.978 264.22 710.628 262.018 714.926 261.518C719.224 261.016 723.246 262.57 726.992 266.176C730.786 269.832 732.738 274.078 732.842 278.914C732.992 283.746 731.62 288.044 728.724 291.808ZM724.134 287.604C726.438 284.61 727.578 281.546 727.554 278.412C727.554 275.304 726.318 272.56 723.846 270.18C721.25 267.678 718.57 266.726 715.81 267.32C713.094 267.91 710.68 269.578 708.566 272.326C706.516 274.992 705.376 277.912 705.15 281.09C704.946 284.29 706.206 287.202 708.928 289.822C711.5 292.3 714.134 293.256 716.828 292.694C719.542 292.102 721.978 290.406 724.134 287.604Z" fill="#0C14B4"/>
<path d="M763 316.026L760.55 312.992L740.25 333.506L738.124 330.954L742.858 299.72L742.728 299.558L729.744 312.68L732.846 316.524L729.372 320.034L720.518 309.07L723.994 305.56L726.346 308.472L743.17 291.468L740.49 288.152L743.966 284.64L749.29 291.234L744.768 321.006L744.9 321.168L757.152 308.784L754.048 304.94L757.524 301.43L766.474 312.514L763 316.026Z" fill="#0C14B4"/>
<path d="M787.084 369.1L784.308 364.982L789.128 360.348L785.908 354.584L766.304 368.292L769.07 373.24L765.022 376.07L756.778 361.318L760.826 358.486L763.49 363.252L783.092 349.544L779.846 343.734L774.012 346.552L771.942 342L781.484 336.59L795.612 361.876L787.084 369.1Z" fill="#0C14B4"/>
<path d="M781.496 414.334L778.416 407.054L787.512 394.384L785.344 389.258L777.9 393.2L779.44 396.84L775.074 399.152L769.766 386.604L774.132 384.294L775.65 387.884L796.79 376.692L795.272 373.1L799.636 370.788L805.492 384.63C807.126 388.492 807.568 391.796 806.816 394.538C806.094 397.266 804.34 399.366 801.552 400.842C799.56 401.898 797.608 402.246 795.696 401.892C793.826 401.552 792.174 400.572 790.738 398.948L784.242 408.19L785.862 412.022L781.496 414.334ZM799.022 395.264C800.708 394.372 801.672 393.236 801.912 391.858C802.186 390.464 801.802 388.538 800.762 386.078L799.04 382.008L789.434 387.094L791.136 391.116C792.218 393.67 793.396 395.216 794.672 395.75C795.98 396.27 797.43 396.108 799.022 395.264Z" fill="#0C14B4"/>
<path d="M820.614 445.446L819.738 442.452L805.726 447.588C803.48 448.412 801.188 448.772 798.852 448.672C796.558 448.59 794.452 447.798 792.532 446.29C790.622 444.816 789.172 442.384 788.178 438.99C786.746 434.1 787.064 430.206 789.136 427.31C791.208 424.414 793.952 422.34 797.37 421.086L811.918 415.754L811.012 412.66L815.65 410.96L819.364 423.634L814.724 425.336L813.542 421.292L799.138 426.572C796.632 427.49 794.778 428.852 793.576 430.656C792.406 432.448 792.232 434.74 793.05 437.536C793.848 440.264 795.208 442.012 797.128 442.782C799.08 443.54 801.44 443.412 804.206 442.398L818.218 437.262L817.004 433.12L821.644 431.42L825.254 443.746L820.614 445.446Z" fill="#0C14B4"/>
<path d="M808.558 484.594C805.276 485.33 802.548 484.734 800.374 482.808C798.204 480.918 796.782 478.078 796.102 474.29C795.7 472.038 795.578 469.792 795.74 467.556C795.91 465.354 796.39 463.524 797.186 462.068L804.91 461.294L805.27 465.952L801.192 466.76C800.82 468.014 800.63 469.122 800.626 470.08C800.662 471.066 800.754 471.968 800.9 472.788C801.254 474.768 801.852 476.336 802.694 477.496C803.576 478.684 804.962 479.064 806.858 478.64C808.92 478.178 810.156 477.12 810.564 475.466C811.004 473.806 811.238 471.96 811.262 469.932C811.284 468.294 811.406 466.616 811.626 464.9C811.846 463.182 812.454 461.662 813.448 460.338C814.442 459.014 816.09 458.096 818.39 457.58C821.84 456.806 824.52 457.43 826.43 459.45C828.38 461.498 829.618 463.988 830.144 466.922C830.512 468.97 830.562 471.018 830.294 473.066C830.034 475.146 829.512 476.844 828.726 478.156L821.83 480.022L820.608 475.556L824.788 474.14C825.158 473.064 825.358 472.024 825.39 471.024C825.422 470.022 825.358 469.078 825.2 468.192C824.912 466.588 824.352 465.328 823.52 464.416C822.688 463.502 821.562 463.204 820.14 463.522C818.484 463.894 817.466 464.796 817.09 466.23C816.752 467.69 816.546 469.28 816.466 471.002C816.412 472.468 816.292 474.146 816.102 476.034C815.912 477.922 815.274 479.664 814.186 481.256C813.14 482.874 811.264 483.988 808.558 484.594Z" fill="#0C14B4"/>
<path d="M825.116 525.266L824.31 520.33L830.696 518.658L830.178 512.074L806.374 514.418L806.818 520.068L801.902 520.552L800.576 503.704L805.494 503.22L805.922 508.664L829.726 506.32L829.204 499.684L822.654 499.284L822.68 494.318L833.732 494.274L836.004 523.15L825.116 525.266Z" fill="#0C14B4"/>
<path d="M214 542C214.036 542 214.08 542.004 214.16 542.074C214.258 542.16 214.402 542.344 214.556 542.694V542.696L214.568 542.718L221.328 557.052L221.556 557.536L222.082 557.616L237.166 559.916V559.914C237.626 559.994 237.84 560.116 237.926 560.19C237.962 560.222 237.974 560.242 237.98 560.256C237.986 560.27 238 560.306 238 560.376C238 560.462 237.94 560.728 237.492 561.2L226.596 572.342L226.242 572.706L226.324 573.204L228.902 588.93H228.904C228.916 589.01 228.926 589.166 228.926 589.424C228.926 589.632 228.89 589.778 228.84 589.882L228.788 589.974C228.782 589.982 228.778 589.988 228.776 589.99C228.766 589.994 228.74 590 228.694 590C228.538 590 228.316 589.948 228.006 589.764L227.99 589.754L227.974 589.746L214.482 582.31L214 582.044L213.518 582.31L200.026 589.746L200.012 589.754C199.664 589.952 199.436 590 199.306 590C199.262 590 199.23 589.996 199.212 589.992C199.204 589.99 199.2 589.99 199.196 589.988L199.192 589.984L199.184 589.974C199.11 589.868 199.044 589.702 199.044 589.424L199.096 588.93L201.676 573.204L201.758 572.704L201.402 572.342L190.486 561.208C190.056 560.718 190 560.452 190 560.376C190 560.306 190.013 560.27 190.02 560.256C190.025 560.242 190.037 560.222 190.074 560.19C190.16 560.116 190.374 559.994 190.832 559.914L190.834 559.916L205.918 557.616L206.444 557.536L206.672 557.052L213.432 542.718L213.442 542.696C213.596 542.344 213.742 542.16 213.84 542.074C213.92 542.004 213.964 542 214 542Z" fill="#E41A1D"/>
<path d="M811 541C811.036 541 811.08 541.004 811.16 541.074C811.258 541.16 811.402 541.344 811.556 541.694V541.696L811.568 541.718L818.328 556.052L818.556 556.536L819.082 556.616L834.166 558.916V558.914C834.626 558.994 834.84 559.116 834.926 559.19C834.962 559.222 834.974 559.242 834.98 559.256C834.986 559.27 835 559.306 835 559.376C835 559.462 834.94 559.728 834.492 560.2L823.596 571.342L823.242 571.706L823.324 572.204L825.902 587.93H825.904C825.916 588.01 825.926 588.166 825.926 588.424C825.926 588.632 825.89 588.778 825.84 588.882L825.788 588.974C825.782 588.982 825.776 588.99 825.776 588.99H825.774C825.764 588.994 825.74 589 825.694 589C825.538 589 825.316 588.948 825.006 588.764L824.99 588.754L824.974 588.746L811.482 581.31L811 581.044L810.518 581.31L797.026 588.746L797.012 588.754C796.664 588.952 796.436 589 796.306 589C796.262 589 796.23 588.996 796.212 588.992C796.204 588.99 796.2 588.99 796.196 588.988L796.192 588.984L796.184 588.974C796.11 588.868 796.044 588.702 796.044 588.424L796.096 587.93L798.676 572.204L798.758 571.704L798.402 571.342L787.486 560.208C787.056 559.718 787 559.452 787 559.376C787 559.306 787.014 559.27 787.02 559.256C787.026 559.242 787.038 559.222 787.074 559.19C787.16 559.116 787.374 558.994 787.832 558.914L787.834 558.916L802.918 556.616L803.444 556.536L803.672 556.052L810.432 541.718L810.442 541.696C810.596 541.344 810.742 541.16 810.84 541.074C810.92 541.004 810.964 541 811 541Z" fill="#E41A1D" stroke="#BD090F"/>
<path d="M231.998 606.878L232.904 607.304L232.914 607.284C232.944 607.216 232.976 607.162 233 607.12L233.086 607.284L233.098 607.304L237.694 617.052L237.922 617.536L238.448 617.616L248.706 619.18V619.178C248.814 619.196 248.896 619.222 248.956 619.242C248.94 619.268 248.924 619.3 248.898 619.334L248.744 619.514L241.336 627.09L240.982 627.452L241.064 627.95L242.816 638.634C242.82 638.668 242.83 638.758 242.83 638.93C242.83 638.938 242.826 638.944 242.826 638.952C242.788 638.934 242.74 638.916 242.688 638.884L242.672 638.876L242.656 638.868L233.482 633.81L233 633.544L232.518 633.81L223.344 638.868L223.33 638.876C223.26 638.916 223.198 638.936 223.152 638.956C223.152 638.946 223.15 638.938 223.15 638.93C223.15 638.93 223.152 638.906 223.156 638.852C223.16 638.804 223.168 638.74 223.178 638.662L224.936 627.95L225.018 627.45L224.662 627.088L217.244 619.526C217.14 619.406 217.078 619.31 217.042 619.242C217.1 619.22 217.182 619.198 217.292 619.178L217.294 619.18L227.552 617.616L228.078 617.536L228.306 617.052L232.902 607.304L231.998 606.878Z" fill="#E41A1D" stroke="#BD090F"/>
<path d="M795.998 610.878L796.904 611.304L796.914 611.284C796.944 611.216 796.976 611.162 797 611.12L797.086 611.284L797.098 611.304L801.694 621.052L801.922 621.536L802.448 621.616L812.706 623.18V623.178C812.814 623.196 812.896 623.222 812.956 623.242C812.94 623.268 812.924 623.3 812.898 623.334L812.744 623.514L805.336 631.09L804.982 631.452L805.064 631.95L806.816 642.634H806.818C806.822 642.668 806.83 642.758 806.83 642.93C806.83 642.938 806.826 642.944 806.826 642.952C806.788 642.934 806.74 642.916 806.688 642.884L806.672 642.876L806.656 642.868L797.482 637.81L797 637.544L796.518 637.81L787.344 642.868L787.33 642.876C787.26 642.916 787.198 642.936 787.152 642.956C787.152 642.946 787.15 642.938 787.15 642.93C787.15 642.93 787.152 642.906 787.156 642.852C787.16 642.804 787.168 642.74 787.178 642.662L788.936 631.95L789.018 631.45L788.662 631.088L781.244 623.526C781.14 623.406 781.078 623.31 781.042 623.242C781.1 623.22 781.182 623.198 781.292 623.178L781.294 623.18L791.552 621.616L792.078 621.536L792.306 621.052L796.902 611.304L795.998 610.878Z" fill="#E41A1D" stroke="#BD090F"/>
<path d="M256.376 664.552L256.604 665.036L257.13 665.116L264.764 666.278L259.208 671.962L258.854 672.324L258.936 672.824L260.24 680.786L253.482 677.06L253 676.794L252.518 677.06L245.758 680.786L247.064 672.824L247.146 672.324L246.792 671.96L241.22 666.28L248.87 665.116L249.396 665.036L249.624 664.552L253 657.39L256.376 664.552Z" fill="#E41A1D" stroke="#BD090F"/>
<path d="M774.376 678.552L774.604 679.036L775.13 679.116L782.764 680.278L777.208 685.962L776.854 686.324L776.936 686.824L778.24 694.786L771.482 691.06L771 690.794L770.518 691.06L763.758 694.786L765.064 686.824L765.146 686.324L764.792 685.96L759.22 680.28L766.87 679.116L767.396 679.036L767.624 678.552L771 671.39L774.376 678.552Z" fill="#E41A1D" stroke="#BD090F"/>
<path d="M457.054 65.491L444.17 68.1786L445.706 75.5408C442.836 77.0964 440.97 77.7086 437.994 81.5396L412.582 120.863L416.776 123.28L440.186 92.057C447.716 115.05 450.35 128.317 452.692 152.006L459.134 150.662L461.016 138.197L466.384 137.077L472.018 147.975L479.534 146.407C471.5 124.191 468.374 111.241 467.03 86.4578L500.87 109.032L504.506 104.98L467.204 76.5442C464.046 74.2136 462.188 73.2828 458.59 72.8532L457.054 65.491Z" fill="#41DFD1"/>
<path d="M468.432 50.872C470.214 59.411 463.99 67.9326 454.53 69.9058C445.07 71.879 435.958 66.5566 434.176 58.0176C432.396 49.4788 438.62 40.957 448.08 38.9838C457.54 37.0106 466.652 42.3332 468.432 50.872Z" fill="#41DFD1"/>
<path d="M560.75 67.6234L548.24 66.3282L547.466 73.8088C544.398 74.4328 542.522 74.4582 538.684 77.22L503.984 107.11L507.082 110.672L537.578 87.9066C537.644 112.088 536.126 125.528 531.27 148.82L537.524 149.468L542.912 138.144L548.124 138.684L550.034 150.763L557.33 151.519C556.576 127.927 557.552 114.642 563.638 90.605L587.752 122.265L592.252 119.491L566.718 81.203C564.534 78.0348 563.12 76.5912 559.974 75.104L560.75 67.6234Z" fill="#F0FB79"/>
<path d="M573.982 55.4928C572.974 65.2136 564.346 72.285 554.708 71.287C545.07 70.289 538.072 61.5996 539.078 51.8786C540.086 42.1578 548.714 35.0864 558.352 36.0844C567.99 37.0824 574.988 45.7718 573.982 55.4928Z" fill="#F0FB79"/>
<path d="M654.308 85.2434L641.656 81.87L639.718 89.1368C636.472 89.2404 634.54 88.9514 630.176 91.0402L589.966 114.788L592.606 118.828L627.408 101.421C623.786 125.342 620.176 138.376 611.632 160.594L617.958 162.281L625.22 151.986L630.492 153.391L630.612 165.654L637.992 167.622C640.818 144.169 643.848 131.197 653.768 108.449L673.71 143.787L678.756 141.798L658.368 99.6686C656.608 96.1708 655.376 94.5066 652.372 92.5102L654.308 85.2434Z" fill="#428BA6"/>
<path d="M667.186 74.5622C664.94 82.9802 655.296 87.7178 645.642 85.144C635.99 82.5704 629.984 73.6598 632.228 65.242C634.472 56.824 644.118 52.0864 653.77 54.6602C663.424 57.2338 669.43 66.1442 667.186 74.5622Z" fill="#428BA6"/>
<path d="M748.086 131.919L737.128 124.749L733.01 131.042C729.894 130.122 728.15 129.242 723.352 129.857L677.722 139.801L678.964 144.465L717.47 138.847C706.53 160.426 699.016 171.671 683.936 190.09L689.416 193.675L699.538 186.176L704.104 189.164L700.372 200.846L706.764 205.028C716.8 183.644 723.744 172.276 740.296 153.785L748.152 193.594L753.57 193.287L747.418 146.889C746.842 143.016 746.194 141.05 743.968 138.212L748.086 131.919Z" fill="#F90A12"/>
<path d="M765.044 129.73C760.46 136.737 749.88 137.927 741.414 132.388C732.95 126.848 729.806 116.677 734.39 109.67C738.976 102.663 749.556 101.473 758.02 107.012C766.486 112.552 769.63 122.723 765.044 129.73Z" fill="#F90A12"/>
<path d="M825.03 195.063L816.432 185.187L810.76 190.125C808.012 188.394 806.572 187.073 801.786 186.363L755.172 183.541L755.1 188.367L793.684 193.417C777.296 211.214 767.01 219.996 747.496 233.628L751.794 238.566L763.574 234.098L767.156 238.214L760.392 248.442L765.408 254.204C780.874 236.348 790.646 227.294 811.596 213.992L808.348 254.438L813.644 255.614L820.322 209.29C820.82 205.406 820.73 203.336 819.358 200.002L825.03 195.063Z" fill="#B0B53A"/>
<path d="M834.988 193.922C829.796 198.442 820.232 195.954 813.626 188.366C807.02 180.778 805.874 170.963 811.064 166.443C816.256 161.924 825.82 164.411 832.426 171.999C839.032 179.587 840.18 189.402 834.988 193.922Z" fill="#B0B53A"/>
<path d="M887.972 271.564L881.074 260.434L874.68 264.396C872.246 262.246 871.038 260.71 866.428 259.24L820.874 248.964L820.026 253.714L857.298 264.9C838.262 279.832 826.698 286.846 805.246 297.166L808.696 302.73L821.04 300.214L823.916 304.85L815.594 313.86L819.62 320.352C837.754 305.214 848.854 297.848 871.67 288.088L861.962 327.486L867.002 329.498L881.038 284.848C882.154 281.094 882.398 279.038 881.58 275.526L887.972 271.564Z" fill="#41DFD1"/>
<path d="M899.012 275.88C892.38 279.99 883.002 276.864 878.064 268.898C873.124 260.93 874.498 251.14 881.13 247.03C887.762 242.918 897.14 246.044 902.08 254.01C907.018 261.978 905.644 271.768 899.012 275.88Z" fill="#41DFD1"/>
<path d="M933.868 363.574L929.352 350.736L922.258 353.232C920.302 350.494 919.426 348.662 915.194 346.1L872.486 325.06L870.684 329.652L905.058 349.666C883.294 360.256 870.49 364.614 847.29 369.988L849.548 376.406L862.202 376.764L864.082 382.112L854.064 389.244L856.698 396.732C877.618 385.724 890.038 380.9 914.466 376.41L896.886 413.85L901.432 417.058L924.34 375.34C926.204 371.818 926.862 369.802 926.774 366.07L933.868 363.574Z" fill="#810E12"/>
<path d="M943.504 364.394C936.604 366.822 928.52 361.714 925.45 352.986C922.38 344.258 925.486 335.216 932.386 332.788C939.286 330.36 947.37 335.468 950.44 344.196C953.51 352.924 950.406 361.968 943.504 364.394Z" fill="#810E12"/>
<path d="M955.71 457.836L954.144 445.016L946.678 445.928C945.376 442.996 944.928 441.122 941.368 437.902L904.392 409.892L901.622 413.8L930.704 439.206C907.154 444.73 893.714 446.242 869.916 446.636L870.7 453.046L882.954 455.886L883.606 461.228L872.268 465.866L873.182 473.346C896 467.266 909.168 465.246 933.968 465.916L908.57 497.212L912.292 501.096L943.828 466.88C946.42 463.976 947.508 462.234 948.246 458.75L955.71 457.836Z" fill="#F4F678"/>
<path d="M962.574 467.046C957.114 467.714 951.704 460.224 950.494 450.316C949.282 440.408 952.728 431.834 958.188 431.168C963.65 430.5 969.058 437.99 970.268 447.898C971.48 457.806 968.034 466.38 962.574 467.046Z" fill="#F4F678"/>
<path d="M954.506 552.468L955.658 540.384L948.258 539.678C947.61 536.72 947.566 534.908 944.798 531.22L914.906 497.884L911.418 500.898L934.226 530.212C910.332 530.414 897.036 529.024 873.97 524.47L873.394 530.512L884.638 535.648L884.16 540.684L872.242 542.596L871.572 549.646C894.876 548.782 908.012 549.65 931.826 555.388L900.79 578.852L903.576 583.182L941.148 558.31C944.256 556.182 945.668 554.808 947.106 551.764L954.506 552.468Z" fill="#438EAB"/>
<path d="M959.652 563.318C952.52 562.638 947.504 554.066 948.446 544.172C949.39 534.276 955.936 526.806 963.066 527.486C970.198 528.166 975.216 536.738 974.272 546.632C973.33 556.528 966.784 563.998 959.652 563.318Z" fill="#438EAB"/>
<path d="M931.764 648.218L935.814 635.642L929.178 633.504C929.314 630.252 929.722 628.324 928.086 623.9L908.824 582.994L904.87 585.528L918.606 620.846C896.564 616.566 884.67 612.596 864.568 603.438L862.542 609.724L871.62 617.276L869.932 622.516L858.492 622.3L856.128 629.634C877.792 633.104 889.668 636.492 910.166 647.044L875.792 666.042L877.286 671.15L918.024 651.888C921.412 650.22 923.05 649.032 925.128 646.08L931.764 648.218Z" fill="#FD030F"/>
<path d="M938.272 659.578C930.846 657.186 927.126 648.102 929.964 639.29C932.804 630.48 941.126 625.276 948.552 627.668C955.98 630.06 959.698 639.144 956.86 647.956C954.022 656.768 945.7 661.97 938.272 659.578Z" fill="#FD030F"/>
<path d="M885.978 741.048L893 729.016L887.164 725.61C888.106 722.326 888.976 720.444 888.51 715.642L880.22 670.474L875.792 672.316L880.174 710.776C860.084 702.33 849.658 696.084 832.648 683.04L829.138 689.056L835.968 698.418L833.042 703.432L822.114 701.088L818.018 708.108C837.946 715.656 848.5 721.308 865.542 735.844L827.816 748.776L827.976 754.246L871.876 742.228C875.542 741.162 877.412 740.258 880.142 737.642L885.978 741.048Z" fill="#AAB43E"/>
<path d="M892.03 753.522C884.974 749.404 883.398 738.968 888.508 730.21C893.62 721.452 903.482 717.692 910.538 721.81C917.594 725.928 919.17 736.364 914.06 745.122C908.948 753.878 899.086 757.64 892.03 753.522Z" fill="#AAB43E"/>
<path d="M825.87 814.774L833.854 804.32L828.776 800.44C830.04 797.474 831.076 795.812 831.198 791.256L828.668 747.946L824.302 749.152L823.942 785.716C806.084 775.44 797.03 768.362 782.592 754.136L778.6 759.362L783.92 768.942L780.592 773.298L770.616 769.816L765.96 775.914C783.772 785.332 793.014 791.868 807.31 807.494L770.424 815.186L769.94 820.332L812.508 814.222C816.07 813.654 817.93 813.026 820.792 810.894L825.87 814.774Z" fill="#41DFD1"/>
<path d="M828.316 831.236C821.514 826.042 821.1 815.152 827.392 806.914C833.682 798.676 844.298 796.21 851.1 801.404C857.902 806.6 858.316 817.488 852.024 825.726C845.734 833.964 835.118 836.432 828.316 831.236Z" fill="#41DFD1"/>
<path d="M757.458 882.54L766.83 874.568L762.536 869.518C764.226 866.996 765.492 865.668 766.328 861.32L770.736 819.028L766.324 819.05L760.192 854.104C744.554 839.578 736.924 830.418 725.218 812.984L720.532 816.97L724.158 827.562L720.254 830.882L711.162 824.94L705.694 829.59C721.422 843.278 729.322 851.968 740.668 870.71L703.796 868.502L702.514 873.322L744.628 878.532C748.162 878.912 750.058 878.794 753.164 877.49L757.458 882.54Z" fill="#780F09"/>
<path d="M757.162 896.772C752.102 890.824 754.198 880.732 761.84 874.232C769.484 867.73 779.782 867.282 784.84 873.232C789.9 879.18 787.804 889.272 780.162 895.772C772.518 902.274 762.22 902.722 757.162 896.772Z" fill="#780F09"/>
<path d="M673.682 927.422L684.738 922.024L681.828 916.066C684.092 914.042 685.646 913.068 687.536 909.064L702.29 869.186L698.012 868.114L683.38 900.552C671.832 882.604 666.71 871.836 659.692 852.046L654.164 854.744L655.052 865.906L650.444 868.154L643.11 860.144L636.66 863.292C648.504 880.452 654.004 890.83 660.35 911.8L625.176 900.52L622.738 904.872L662.246 920.358C665.576 921.604 667.442 921.958 670.774 921.464L673.682 927.422Z" fill="#F3F97A"/>
<path d="M666.096 941.912C662.836 935.236 667.404 926.302 676.3 921.958C685.196 917.614 695.05 919.504 698.31 926.18C701.57 932.856 697.002 941.79 688.106 946.134C679.21 950.478 669.356 948.588 666.096 941.912Z" fill="#F3F97A"/>
<path d="M576.828 954.086L589.632 951.766L588.422 945.088C591.314 943.704 593.176 943.166 596.266 939.724L622.916 904.348L618.884 902.122L594.538 930.184C588.064 909.3 586.016 897.268 584.682 875.8L578.282 876.96L575.916 888.228L570.58 889.194L565.478 879.28L558.01 880.634C565.012 900.816 567.558 912.568 567.864 935.018L535.454 914.282L531.706 917.918L567.286 943.99C570.3 946.128 572.092 946.988 575.618 947.408L576.828 954.086Z" fill="#3C8BA3"/>
<path d="M569.844 964.108C568.654 957.542 575.37 950.826 584.844 949.108C594.318 947.392 602.964 951.324 604.154 957.892C605.344 964.46 598.628 971.174 589.154 972.892C579.68 974.608 571.034 970.676 569.844 964.108Z" fill="#3C8BA3"/>
<path d="M476.666 961.04L489.674 961.308L489.824 954.106C492.932 953.274 494.866 953.104 498.582 950.17L531.766 918.948L528.26 915.788L498.794 939.882C496.626 916.798 497.024 903.848 500.01 881.234L493.504 881.1L488.934 892.328L483.514 892.216L480.496 880.83L472.906 880.672C475.734 903.14 475.88 915.9 471.692 939.32L444.08 910.956L439.68 913.952L469.332 948.536C471.86 951.392 473.442 952.66 476.814 953.838L476.666 961.04Z" fill="#EE0B12"/>
<path d="M466.002 971.832C466.142 965.094 474.32 959.8 484.268 960.006C494.216 960.212 502.168 965.84 502.028 972.58C501.888 979.318 493.71 984.614 483.762 984.408C473.814 984.2 465.862 978.572 466.002 971.832Z" fill="#EE0B12"/>
<path d="M369.51 936.376L381.756 940.776L384.19 933.996C387.404 934.198 389.29 934.652 393.746 933.056L435.146 914.03L432.832 909.916L397.226 923.37C402.524 900.798 407.026 888.65 417.058 868.164L410.936 865.964L403.026 875.152L397.924 873.318L398.69 861.566L391.546 858.998C387.068 881.196 383.142 893.338 371.714 914.204L354.576 878.524L349.45 879.962L366.542 922.188C368.028 925.7 369.124 927.408 371.944 929.598L369.51 936.376Z" fill="#B0B938"/>
<path d="M352.696 942.762C355.362 935.338 364.926 931.978 374.054 935.256C383.182 938.536 388.42 947.214 385.752 954.638C383.084 962.062 373.522 965.424 364.394 962.144C355.266 958.864 350.028 950.188 352.696 942.762Z" fill="#B0B938"/>
<path d="M275.42 888.486L285.626 896.556L290.094 890.906C293.076 892.118 294.718 893.152 299.452 893.056L344.756 888.208L343.872 883.574L305.836 884.984C318.048 865.276 326.184 855.194 342.22 838.972L337.116 834.936L326.692 841.126L322.44 837.762L326.91 826.866L320.956 822.158C309.642 841.772 302.052 852.03 284.572 868.17L279.692 828.888L274.376 828.62L277.126 874.09C277.416 877.892 277.912 879.86 279.888 882.834L275.42 888.486Z" fill="#41DFD1"/>
<path d="M260.194 885.872C264.504 880.42 273.734 880.534 280.806 886.128C287.88 891.72 290.118 900.674 285.806 906.128C281.496 911.58 272.266 911.466 265.194 905.872C258.12 900.28 255.882 891.326 260.194 885.872Z" fill="#41DFD1"/>
<path d="M196.795 828.542L206.668 837.018L211.43 831.47C214.37 832.792 215.972 833.888 220.734 833.95L266.51 830.572L265.842 825.87L227.538 826.026C240.762 806.564 249.426 796.67 266.326 780.85L261.39 776.612L250.614 782.504L246.5 778.972L251.518 768.134L245.758 763.19C233.442 782.588 225.32 792.678 206.972 808.366L203.954 768.602L198.622 768.154L199.202 814.086C199.31 817.93 199.714 819.93 201.558 822.994L196.795 828.542Z" fill="#6C0E11"/>
<path d="M179.319 828.112C184.113 822.528 193.678 822.874 200.682 828.888C207.686 834.902 209.476 844.304 204.682 849.888C199.887 855.472 190.323 855.124 183.319 849.112C176.315 843.098 174.524 833.696 179.319 828.112Z" fill="#6C0E11"/>
<path d="M133.113 757.326L140.939 767.722L146.781 763.324C149.368 765.246 150.698 766.658 155.336 767.74L200.772 774.254L201.128 769.518L163.682 761.458C180.77 745.284 191.354 737.478 211.252 725.648L207.34 720.45L195.55 723.896L192.29 719.564L199.513 710.054L194.948 703.99C178.76 720.296 168.663 728.41 147.378 739.8L152.956 700.314L147.843 698.734L138.563 743.722C137.845 747.5 137.811 749.54 138.955 752.928L133.113 757.326Z" fill="#F3F97A"/>
<path d="M121.853 753.912C126.19 750.646 133.701 753.308 138.63 759.854C143.559 766.402 144.039 774.356 139.702 777.622C135.364 780.886 127.853 778.226 122.924 771.678C117.995 765.13 117.516 757.176 121.853 753.912Z" fill="#F3F97A"/>
<path d="M88.6214 668.274L93.6166 679.78L100.385 676.842C102.414 679.208 103.352 680.83 107.582 682.832L150.044 698.584L151.574 694.17L117.251 678.636C137.876 666.9 150.097 661.732 172.363 654.708L169.866 648.956L157.565 649.738L155.484 644.944L164.871 637.45L161.957 630.738C142.172 642.786 130.346 648.352 106.845 654.664L122.128 618.402L117.562 615.826L97.3102 656.524C95.6694 659.954 95.1258 661.882 95.3896 665.336L88.6214 668.274Z" fill="#478FA8"/>
<path d="M75.2256 658.258C81.551 655.512 89.8634 660.622 93.792 669.67C97.7206 678.72 95.7776 688.282 89.4522 691.028C83.1268 693.774 74.8142 688.664 70.8856 679.616C66.9572 670.566 68.9002 661.004 75.2256 658.258Z" fill="#478FA8"/>
<path d="M68.771 568.95L69.1336 581.488L76.509 581.274C77.514 584.226 77.782 586.078 80.9654 589.51L114.535 619.912L117.596 616.38L91.5016 589.206C115.01 585.974 128.277 585.716 151.558 587.468L151.377 581.2L139.666 577.356L139.515 572.132L151.014 568.662L150.803 561.348C127.958 565.182 114.911 565.956 90.746 563.084L118.408 535.096L115.126 531.008L81.203 561.27C78.4052 563.844 77.1846 565.432 76.1464 568.736L68.771 568.95Z" fill="#F60A0E"/>
<path d="M58.195 549.59C66.0348 549.362 72.622 557.192 72.908 567.078C73.194 576.962 67.0704 585.16 59.2304 585.386C51.3906 585.614 44.8034 577.784 44.5174 567.898C44.2314 558.014 50.3552 549.816 58.195 549.59Z" fill="#F60A0E"/>
<path d="M67.5148 473.794L66.0744 486.86L73.4084 487.668C73.9796 490.872 73.9792 492.832 76.6388 496.84L105.517 533.082L109.055 529.844L87.116 497.994C110.859 497.924 124.033 499.51 146.836 504.58L147.556 498.048L136.511 492.422L137.112 486.978L148.997 484.982L149.837 477.362C126.664 478.152 113.634 477.132 90.1172 470.778L121.527 445.59L118.864 440.888L80.9278 467.56C77.7878 469.842 76.3512 471.318 74.8488 474.604L67.5148 473.794Z" fill="#A8B247"/>
<path d="M59.665 455.506C67.349 456.354 72.7382 464.658 71.702 474.054C70.666 483.45 63.597 490.382 55.913 489.534C48.229 488.686 42.8398 480.382 43.876 470.986C44.912 461.59 51.981 454.66 59.665 455.506Z" fill="#A8B247"/>
<path d="M95.0968 372.938L90.9924 384.918L97.6648 387.204C97.521 390.334 97.1062 392.176 98.7414 396.496L118.03 436.568L122.016 434.262L108.274 399.762C130.443 404.636 142.401 408.868 162.607 418.378L164.659 412.388L155.542 404.802L157.252 399.812L168.763 400.41L171.158 393.422C149.369 389.342 137.425 385.672 116.824 374.806L151.454 357.668L149.963 352.696L108.93 369.87C105.518 371.36 103.865 372.45 101.769 375.224L95.0968 372.938Z" fill="#41DFD1"/>
<path d="M89.2918 351.938C97.8622 354.114 102.622 364.498 99.923 375.132C97.224 385.766 88.0884 392.624 79.518 390.448C70.9476 388.274 66.188 377.888 68.887 367.254C71.586 356.62 80.7216 349.764 89.2918 351.938Z" fill="#41DFD1"/>
<path d="M132.601 286.674L126.697 297.876L132.936 301.164C132.311 304.236 131.617 305.992 132.566 310.512L145.438 353.082L149.732 351.418L141.479 315.21C162.63 323.448 173.792 329.474 192.288 341.99L195.24 336.388L187.403 327.486L189.863 322.818L201.144 325.186L204.588 318.652C183.69 311.258 172.457 305.788 153.78 291.872L190.64 280.286L189.933 275.142L146.741 285.776C143.14 286.724 141.34 287.544 138.84 289.962L132.601 286.674Z" fill="#711208"/>
<path d="M129.69 268.488C136.489 272.072 138.109 282.358 133.31 291.464C128.51 300.57 119.108 305.048 112.31 301.464C105.511 297.882 103.891 287.594 108.69 278.488C113.49 269.382 122.892 264.906 129.69 268.488Z" fill="#711208"/>
<path d="M192.5 212.296L184.135 221.802L189.431 226.462C188.103 229.3 187.017 230.846 186.88 235.462L189.42 279.862L193.984 279.252L194.445 242.118C213.078 255.082 222.516 263.556 237.566 280.056L241.748 275.304L236.214 264.812L239.7 260.852L250.112 265.796L254.992 260.25C236.408 248.166 226.768 240.216 211.872 222.312L250.42 219.684L250.938 214.518L206.456 214.738C202.734 214.814 200.792 215.19 197.795 216.954L192.5 212.296Z" fill="#F0FF6B"/>
<path d="M193.785 197.325C199.638 202.474 199.192 212.548 192.789 219.826C186.386 227.104 176.451 228.83 170.598 223.68C164.745 218.53 165.191 208.456 171.594 201.178C177.997 193.901 187.932 192.176 193.785 197.325Z" fill="#F0FF6B"/>
<path d="M266.612 146.95L256.774 155.282L261.332 160.664C259.562 163.314 258.236 164.705 257.378 169.294L252.966 213.96L257.618 213.982L263.888 176.984C280.462 192.5 288.562 202.264 301.004 220.814L305.924 216.648L302.04 205.412L306.14 201.942L315.762 208.316L321.502 203.458C304.838 188.825 296.458 179.557 284.386 159.627L323.284 162.337L324.61 157.253L280.166 151.318C276.436 150.879 274.438 150.986 271.17 152.333L266.612 146.95Z" fill="#3F90A9"/>
<path d="M266.804 128.744C272.762 135.781 271.322 146.797 263.588 153.347C255.852 159.898 244.75 159.503 238.79 152.465C232.832 145.428 234.27 134.412 242.006 127.862C249.742 121.311 260.844 121.706 266.804 128.744Z" fill="#3F90A9"/>
<path d="M356.35 94.1936L344.238 100.558L347.52 106.801C345.05 109.091 343.35 110.216 341.32 114.612L325.572 158.173L330.302 159.103L346.008 123.532C358.96 142.201 364.74 153.493 372.724 174.373L378.78 171.191L377.66 159.258L382.706 156.607L390.89 164.827L397.956 161.115C384.688 143.307 378.498 132.453 371.238 110.273L410.134 120.567L412.766 115.77L369.038 101.185C365.356 100.02 363.294 99.7356 359.63 100.437L356.35 94.1936Z" fill="#FA0718"/>
<path d="M361.626 77.2C365.452 84.4826 361.45 94.12 352.686 98.7256C343.922 103.331 333.714 101.161 329.888 93.878C326.06 86.5952 330.062 76.9578 338.828 72.3524C347.592 67.7468 357.8 69.9172 361.626 77.2Z" fill="#FA0718"/>
<path d="M280.288 715.554L289.872 707.382L305.652 691.67L311.148 696.592L294.232 711.526L288.324 717.588L295.5 725.412L290.832 729.026L280.288 715.554Z" fill="#AB223C"/>
<path d="M307.892 739.248C308.578 739.982 309.474 740.56 310.578 740.98C311.682 741.4 312.62 741.644 313.39 741.71L314.548 741.808L314.252 745.732C313.624 745.92 312.808 746.034 311.804 746.074C310.8 746.114 309.854 746.062 308.964 745.92C308.122 745.778 307.124 745.422 305.972 744.848C304.866 744.274 303.862 743.506 302.962 742.544C301.04 740.496 300.178 738.036 300.372 735.164C300.588 732.266 301.812 729.558 304.044 727.042C306.85 723.878 310.152 722 313.952 721.41C317.75 720.82 320.776 721.726 323.028 724.128C324.76 725.976 325.628 727.936 325.632 730.012C325.662 732.112 324.824 734.122 323.122 736.042C322.11 737.182 320.784 738.29 319.14 739.362L317.704 739.42L308.02 730.83C305.824 734.192 305.782 736.998 307.892 739.248ZM318.586 727.188C317.544 726.074 316.252 725.606 314.712 725.78C313.196 725.93 311.746 726.654 310.362 727.954L317.132 733.588C317.732 733.066 318.206 732.612 318.55 732.222C320.092 730.484 320.104 728.806 318.586 727.188Z" fill="#AB223C"/>
<path d="M334.566 737.354L337.96 732.814L343.99 736.428L339.282 741.598L343.96 745.806L340.98 748.838L336.574 744.872L329.872 753.402C328.896 754.708 328.358 755.686 328.258 756.338C328.178 756.964 328.448 757.554 329.066 758.112C329.686 758.668 330.624 759.258 331.884 759.88L329.904 763.044C327.062 763.042 324.996 762.46 323.708 761.3C322.418 760.14 321.736 758.69 321.658 756.95C321.602 755.18 322.186 753.476 323.412 751.838L327.132 747.382L332.012 740.768L329.346 738.368L332.324 735.336L334.566 737.354Z" fill="#AB223C"/>
<path d="M357.384 751.306C355.782 753.778 352.39 755.074 347.208 755.192L346.376 752.572C349.29 751.824 351.22 750.722 352.162 749.268C352.746 748.366 353.136 746.94 353.332 744.99L358.452 746.422C358.57 748.398 358.214 750.026 357.384 751.306Z" fill="#AB223C"/>
<path d="M360.408 782.6C361.908 783.602 363.044 783.404 363.818 782.01C364.088 781.526 364.008 780.85 363.58 779.982C363.182 779.134 362.626 778.18 361.91 777.12C361.222 776.08 360.546 774.984 359.88 773.834C359.262 772.672 358.88 771.4 358.74 770.018C358.626 768.654 358.906 767.366 359.58 766.154C360.708 764.124 362.542 762.918 365.084 762.54C367.626 762.16 370.008 762.712 372.226 764.194C373.264 764.888 374.198 765.698 375.026 766.624C375.902 767.542 376.648 768.58 377.268 769.742L371.292 773.354C371.19 773.036 371.058 772.636 370.892 772.152C370.726 771.668 370.314 770.914 369.656 769.892C369.044 768.86 368.392 768.114 367.7 767.652C367.036 767.208 366.426 767.028 365.866 767.112C365.352 767.184 364.934 767.508 364.614 768.084C364.312 768.63 364.49 769.518 365.15 770.748C365.856 771.968 366.666 773.214 367.58 774.488C368.508 775.732 369.16 777.228 369.534 778.974C369.956 780.708 369.752 782.318 368.928 783.804C367.75 785.924 365.88 787.23 363.316 787.72C360.782 788.23 358.432 787.762 356.27 786.318C354.886 785.394 353.766 784.208 352.908 782.764C352.08 781.338 351.584 780.132 351.418 779.15L351.17 777.676L356.908 775.774C356.946 776.132 357.022 776.598 357.138 777.174C357.252 777.75 357.604 778.648 358.19 779.872C358.804 781.112 359.544 782.022 360.408 782.6Z" fill="#AB223C"/>
<path d="M408.562 795.158L409.036 795.37L422.832 779.928L429.316 783.044L421.742 804.098L417.986 817.08L411.574 814.224L416.506 801.65L420.732 788.592L409.054 802.194L403.104 799.884L403.868 781.082L398.692 793.716L394.33 806.542L388.44 803.92L393.494 792.366L401.524 771.572L409.528 773.718L408.562 795.158Z" fill="#AB223C"/>
<path d="M430 820.06C428.044 819.462 426.594 818.348 425.652 816.72C424.75 815.068 424.568 813.182 425.106 811.066C425.654 808.916 427.086 807.362 429.402 806.406C431.726 805.416 434.264 805.342 437.014 806.184L440.396 807.218L440.614 806.362C441.032 804.716 440.988 803.488 440.478 802.68C439.97 801.874 438.804 801.19 436.98 800.632C436.218 800.398 435.264 800.288 434.116 800.298C433.012 800.286 431.728 800.418 430.264 800.694L429.836 796.272C431.518 795.7 433.472 795.322 435.7 795.134C437.96 794.956 439.752 795.072 441.078 795.478C446.282 797.07 448.236 800.42 446.936 805.526L444.422 815.404C443.944 817.286 443.99 819.562 444.56 822.236L438.712 822.89C438.294 821.024 438.048 819.392 437.976 817.994C435.444 820.224 432.784 820.912 430 820.06ZM433.396 815.56C434.722 815.966 436.406 815.738 438.446 814.878L439.306 811.502C437.652 810.56 436.278 809.924 435.184 809.588C433.096 808.948 431.812 809.57 431.334 811.452C431.086 812.426 431.15 813.296 431.526 814.064C431.912 814.796 432.534 815.296 433.396 815.56Z" fill="#AB223C"/>
<path d="M468.458 829.648L461.184 813.55L461.126 813.908L459.72 826.08L452.622 826.01L455.268 813.66L458.892 787.57L466.092 787.66L461.384 812.318L473.424 803.08L477.684 807.306L467.382 813.972L474.912 826.89L468.458 829.648Z" fill="#AB223C"/>
<path d="M490.416 826.2C491.416 826.294 492.49 826.132 493.634 825.716C494.778 825.302 495.682 824.862 496.344 824.402L497.336 823.712L499.492 826.836C499.102 827.392 498.514 828.016 497.732 828.708C496.948 829.402 496.154 829.99 495.352 830.472C494.588 830.922 493.566 831.316 492.29 831.65C491.05 831.952 489.774 832.042 488.462 831.92C485.666 831.66 483.468 830.394 481.872 828.122C480.276 825.816 479.608 822.986 479.868 819.634C480.194 815.416 481.704 811.832 484.402 808.88C487.098 805.928 490.086 804.604 493.364 804.91C495.884 805.144 497.78 806.034 499.052 807.578C500.356 809.128 500.91 811.18 500.714 813.738C500.596 815.26 500.204 816.964 499.536 818.85L498.416 819.844L485.38 819.832C485.666 823.792 487.344 825.916 490.416 826.2ZM491.658 810.128C490.138 809.988 488.814 810.492 487.682 811.64C486.552 812.752 485.828 814.252 485.51 816.136L494.396 815.866C494.56 815.08 494.662 814.43 494.702 813.91C494.882 811.594 493.866 810.334 491.658 810.128Z" fill="#AB223C"/>
<path d="M533.498 795.524C536.816 795.274 539.49 795.836 541.522 797.212C543.552 798.554 544.644 800.488 544.804 803.014C545.058 807.062 543.574 810.006 540.356 811.848C544.948 813.066 547.374 815.768 547.638 819.954C547.834 823.104 546.652 825.834 544.088 828.148C541.522 830.428 538.2 831.722 534.12 832.03C531.976 832.192 528.768 832.242 524.492 832.182L524.322 819.524L522.246 796.372L533.498 795.524ZM534.102 815.97L529.902 816.288L529.97 818.212L530.864 826.644C532.88 826.666 534.424 826.636 535.496 826.554C537.328 826.416 538.716 825.86 539.664 824.884C540.642 823.872 541.076 822.484 540.964 820.72C540.854 818.954 540.252 817.678 539.162 816.892C538.07 816.106 536.384 815.798 534.102 815.97ZM531.96 800.906L529.418 801.098L529.742 811.242L533.112 810.988C534.876 810.854 536.194 810.286 537.07 809.28C537.942 808.242 538.322 806.84 538.212 805.076C538.018 801.996 535.934 800.606 531.96 800.906Z" fill="#AB223C"/>
<path d="M564.606 821.946C565.594 821.762 566.592 821.31 567.604 820.592C568.614 819.874 569.386 819.2 569.918 818.572L570.718 817.628L573.518 820.066C573.268 820.712 572.844 821.478 572.246 822.366C571.646 823.254 571.016 824.042 570.352 824.73C569.716 825.378 568.82 826.04 567.662 826.714C566.534 827.35 565.322 827.788 564.026 828.03C561.266 828.548 558.856 827.924 556.792 826.16C554.724 824.362 553.432 821.8 552.914 818.478C552.264 814.3 552.902 810.408 554.832 806.802C556.76 803.198 559.342 801.094 562.58 800.486C565.068 800.02 567.102 800.362 568.684 801.512C570.3 802.654 571.304 804.494 571.698 807.028C571.934 808.536 571.944 810.296 571.732 812.31L570.878 813.58L558.284 817.156C559.466 820.918 561.572 822.514 564.606 821.946ZM562.126 806.018C560.626 806.3 559.462 807.152 558.632 808.576C557.796 809.966 557.44 811.62 557.562 813.536L566.084 810.83C566.064 810.022 566.012 809.362 565.932 808.848C565.576 806.554 564.306 805.61 562.126 806.018Z" fill="#AB223C"/>
<path d="M578.672 798.332L577.368 792.816L583.81 789.58L584.774 796.596L590.826 794.876L591.256 799.182L585.554 800.802L587.804 811.45C588.178 813.036 588.58 814.056 589.008 814.51C589.428 814.932 590.038 815.028 590.838 814.8C591.638 814.572 592.662 814.084 593.908 813.334L595.056 816.842C593.294 819.322 591.58 820.8 589.912 821.274C588.244 821.748 586.734 821.53 585.38 820.618C584.018 819.674 583.102 818.206 582.632 816.216L581.592 810.462L579.652 802.482L576.202 803.462L575.77 799.156L578.672 798.332Z" fill="#AB223C"/>
<path d="M599.654 791.716L597.95 786.31L604.108 782.532L605.586 789.466L611.47 787.236L612.216 791.504L606.674 793.608L609.698 804.064C610.188 805.618 610.662 806.604 611.122 807.022C611.57 807.408 612.182 807.454 612.96 807.158C613.738 806.864 614.718 806.288 615.9 805.432L617.302 808.842C615.736 811.472 614.142 813.096 612.522 813.71C610.9 814.324 609.384 814.234 607.972 813.436C606.55 812.606 605.53 811.216 604.916 809.266L603.456 803.6L600.936 795.784L597.582 797.056L596.834 792.786L599.654 791.716Z" fill="#AB223C"/>
<path d="M634.094 798.582C634.998 798.142 635.852 797.44 636.654 796.472C637.456 795.504 638.042 794.642 638.408 793.888L638.956 792.756L642.2 794.408C642.108 795.106 641.878 795.968 641.51 796.994C641.142 798.02 640.718 798.956 640.24 799.804C639.78 800.604 639.074 801.486 638.12 802.45C637.186 803.366 636.126 804.114 634.942 804.69C632.416 805.918 629.962 805.938 627.58 804.752C625.184 803.532 623.356 801.364 622.096 798.248C620.51 794.326 620.226 790.35 621.244 786.316C622.262 782.282 624.252 779.544 627.212 778.104C629.488 776.996 631.516 776.798 633.296 777.51C635.106 778.206 636.492 779.742 637.454 782.12C638.026 783.534 638.442 785.256 638.702 787.282L638.176 788.75L626.936 795.546C628.934 798.92 631.32 799.932 634.094 798.582ZM628.052 783.638C626.68 784.306 625.76 785.446 625.292 787.058C624.812 788.636 624.852 790.348 625.41 792.192L632.95 787.312C632.746 786.528 632.544 785.894 632.35 785.412C631.48 783.258 630.046 782.668 628.052 783.638Z" fill="#AB223C"/>
<path d="M640.28 773.104L645.064 768.648C646.526 770.874 647.836 773.03 648.996 775.116C649.512 769.118 650.958 765.404 653.332 763.972L656.474 771.522C654.75 772.56 653.47 773.552 652.63 774.502C651.806 775.402 651.114 776.644 650.556 778.232L651.394 779.906L657.352 790.538L651.964 795.296L646.844 783.674C644.646 779.592 642.458 776.068 640.28 773.104Z" fill="#AB223C"/>
<path d="M686.898 772.248L680.292 761.394L667.348 743.41L672.34 737.668L684.47 756.85L689.478 763.592L697.272 756.166L700.156 761.434L686.898 772.248Z" fill="#AB223C"/>
<path d="M695.868 729.566L703.464 740.14L711.472 749.32L707.24 755.15L699.838 744.818L691.636 735.396L695.868 729.566ZM685.846 728.68C685.114 727.758 684.794 726.632 684.886 725.302C684.956 723.948 685.418 722.862 686.27 722.048C687.122 721.234 687.978 720.87 688.84 720.956C689.678 721.014 690.498 721.546 691.294 722.55C692.092 723.554 692.454 724.736 692.384 726.09C692.318 727.396 691.858 728.454 691.006 729.268C690.178 730.058 689.288 730.382 688.338 730.238C687.388 730.096 686.558 729.576 685.846 728.68Z" fill="#AB223C"/>
<path d="M708.22 705.934C707.144 706.646 706.254 707.386 705.55 708.154C704.848 708.92 704.542 709.712 704.632 710.532C704.746 711.328 705.328 712.302 706.374 713.458L709.656 717.158L713.452 713.02L715.928 716.602L712.518 720.32L717.44 725.83L726.03 734.466L722.156 740.602L714.096 730.776L708.404 724.802L706.084 727.33L703.608 723.748L705.472 721.718L702.784 718.828C700.712 716.54 699.6 713.898 699.446 710.9C699.27 707.876 700.106 705.356 701.958 703.338C702.942 702.266 704.068 701.27 705.332 700.352L708.22 705.934Z" fill="#AB223C"/>
<path d="M738.142 714.104C738.762 713.312 739.224 712.3 739.528 711.07C739.834 709.84 739.99 708.802 739.996 707.954L740.004 706.682L743.598 706.794C743.814 707.472 743.976 708.358 744.082 709.454C744.188 710.55 744.208 711.588 744.142 712.57C744.072 713.5 743.816 714.61 743.376 715.902C742.93 717.142 742.302 718.282 741.49 719.32C739.76 721.53 737.58 722.608 734.95 722.55C732.296 722.468 729.744 721.276 727.296 718.97C724.218 716.07 722.276 712.558 721.47 708.434C720.666 704.308 721.278 700.95 723.308 698.356C724.868 696.364 726.592 695.308 728.482 695.19C730.392 695.046 732.282 695.852 734.15 697.612C735.26 698.658 736.362 700.05 737.454 701.79L737.608 703.358L730.466 714.416C733.682 716.636 736.24 716.532 738.142 714.104ZM726.406 703.052C725.466 704.254 725.13 705.69 725.398 707.366C725.64 709.016 726.402 710.564 727.682 712.008L732.336 704.298C731.82 703.668 731.372 703.176 730.994 702.82C729.302 701.228 727.774 701.304 726.406 703.052Z" fill="#AB223C"/>
</svg>
